Coordinates
version=1
nRows=19
nColumns=33
inDegrees=yes

Units are S.I. units (second, meters, Newtons, ...)
Angles are in degrees.

endheader
time	ground_thorax_rot_x	ground_thorax_rot_y	ground_thorax_rot_z	ground_thorax_tx	ground_thorax_ty	ground_thorax_tz	clav_prot_r	clav_elev_r	scapula_abduction_r	scapula_elevation_r	scapula_upward_rot_r	scapula_winging_r	shoulder_elv_r	plane_of_elev_r	axial_rot_r	elbow_flexion_r	pro_sup_r	wrist_flex_r	wrist_dev_r	clav_prot_l	clav_elev_l	scapula_abduction_l	scapula_elevation_l	scapula_upward_rot_l	scapula_winging_l	shoulder_elv_l	plane_of_elev_l	axial_rot_l	elbow_flexion_l	pro_sup_l	wrist_flex_l	wrist_dev_l	
11.2800	28.491961	32.326455	42.537243	53.663049	757.783491	-32.935849	12.055405	36.563011	27.619877	45.000000	-45.058346	-3317.656027	-1911.239100	159.273015	14.714905	2161.258497	-195.157906	10.743448	13.543465	-12.805708	-45.000000	-37.068800	45.000000	-45.000000	-3864.929180	-1355.820625	15.030436	-180.000000	370.414733	191.821803	12.325552	-10.749018	
11.2900	28.449723	32.431323	42.600239	52.889371	757.479799	-32.840476	12.263275	36.544786	27.610121	45.000000	-45.043887	-3317.801202	-1911.191189	159.348734	15.270394	2161.208002	-195.200661	10.694394	13.505941	-13.032277	-45.000000	-36.769703	45.000000	-45.000000	-3864.806290	-1355.643855	15.041589	-180.000000	370.526259	192.864161	12.130972	-10.878950	
11.3000	28.441313	32.512031	42.612756	52.077329	757.192436	-32.742887	12.527649	36.543703	27.616517	45.000000	-44.978823	-3317.937974	-1911.148203	159.454244	15.872156	2161.130895	-195.237803	10.612115	13.450959	-13.313517	-45.000000	-36.462194	45.000000	-45.000000	-3864.721827	-1355.462765	15.035061	-180.000000	370.621902	193.837902	11.938504	-10.996864	
11.3100	28.396151	32.601377	42.653991	51.184034	756.941714	-32.639272	12.654181	36.522175	27.586991	45.000000	-44.971591	-3318.073634	-1911.099468	159.510112	16.325029	2161.099524	-195.380314	10.592968	13.448254	-13.449759	-45.000000	-36.236404	45.000000	-45.000000	-3864.569018	-1355.314680	15.058107	-180.000000	370.717026	194.603676	11.761397	-11.097937	
11.3200	28.347409	32.680604	42.678401	50.201622	756.729922	-32.530606	12.716644	36.501618	27.546427	45.000000	-44.976326	-3318.205972	-1911.051525	159.549620	16.705835	2161.080346	-195.580309	10.599002	13.467820	-13.519146	-45.000000	-36.069411	45.000000	-45.000000	-3864.397192	-1355.185192	15.089088	-180.000000	370.800294	195.199331	11.596214	-11.184443	
11.3300	28.296624	32.748890	42.688183	49.116928	756.562612	-32.417417	12.731801	36.478849	27.498769	45.000000	-44.989239	-3318.338536	-1911.004837	159.575639	17.012883	2161.067817	-195.825157	10.624727	13.503768	-13.532175	-45.000000	-35.949828	45.000000	-45.000000	-3864.207590	-1355.068525	15.125925	-180.000000	370.867143	195.637010	11.441959	-11.258178	
11.3400	28.255183	32.800988	42.665725	47.926224	756.440890	-32.301361	12.721921	36.463634	27.452351	45.000000	-45.000000	-3318.469345	-1910.961226	159.596667	17.278859	2161.055182	-196.081858	10.658557	13.543796	-13.515499	-45.000000	-35.873932	45.000000	-45.000000	-3864.021817	-1354.959789	15.161738	-180.000000	370.921606	195.965484	11.297368	-11.323814	
11.3500	28.225823	32.837814	42.618069	46.630858	756.364186	-32.184453	12.721207	36.450988	27.414172	45.000000	-45.000000	-3318.603016	-1910.921633	159.619642	17.516581	2161.035242	-196.320959	10.688577	13.576083	-13.496137	-45.000000	-35.813790	45.000000	-45.000000	-3863.844653	-1354.847810	15.193025	-180.000000	370.962268	196.238128	11.159297	-11.386208	
11.3600	28.206338	32.861152	42.542606	45.232048	756.332174	-32.068274	12.714204	36.444682	27.381091	45.000000	-45.000000	-3318.737361	-1910.884552	159.639780	17.729444	2161.011965	-196.528867	10.723546	13.603344	-13.464777	-45.000000	-35.780894	45.000000	-45.000000	-3863.677471	-1354.736244	15.222113	-180.000000	370.993559	196.490282	11.029088	-11.451158	
11.3700	28.192286	32.876035	42.455037	43.731578	756.344463	-31.954076	12.711479	36.435519	27.350196	45.000000	-45.000000	-3318.875040	-1910.848142	159.654569	17.910789	2160.991235	-196.696779	10.760968	13.625328	-13.425553	-45.000000	-35.756552	45.000000	-45.000000	-3863.511638	-1354.620190	15.252792	-180.000000	371.020104	196.744023	10.905366	-11.518076	
11.3800	28.185546	32.881618	42.349323	42.131035	756.400329	-31.842752	12.706237	36.427975	27.320992	45.000000	-45.000000	-3319.014534	-1910.813026	159.664218	18.070652	2160.974171	-196.816656	10.803734	13.642831	-13.377206	-45.000000	-35.747618	45.000000	-45.000000	-3863.351520	-1354.501606	15.283864	-180.000000	371.044641	197.011323	10.790342	-11.587730	
11.3900	28.179551	32.884242	42.243774	40.432566	756.498798	-31.734980	12.705109	36.411949	27.291270	45.000000	-45.000000	-3319.160506	-1910.778002	159.666568	18.200467	2160.966590	-196.886346	10.850566	13.655760	-13.319341	-45.000000	-35.738094	45.000000	-45.000000	-3863.186070	-1354.375692	15.317651	-180.000000	371.068985	197.296480	10.683522	-11.657779	
11.4000	28.179064	32.878944	42.123515	38.638067	756.638670	-31.631217	12.698980	36.398453	27.263201	45.000000	-45.000000	-3319.311761	-1910.743733	159.664603	18.316105	2160.957527	-196.901718	10.905904	13.666279	-13.254153	-45.000000	-35.740164	45.000000	-45.000000	-3863.023061	-1354.246185	15.351280	-180.000000	371.088444	197.597001	10.587155	-11.729513	
11.4100	28.182543	32.868957	41.995985	36.749778	756.818655	-31.531778	12.690261	36.385405	27.234532	45.000000	-45.000000	-3319.470506	-1910.706975	159.654313	18.417559	2160.953763	-196.864075	10.965955	13.677591	-13.185372	-45.000000	-35.745909	45.000000	-45.000000	-3862.856220	-1354.112181	15.389801	-180.000000	371.110810	197.906490	10.500286	-11.798088	
11.4200	28.191770	32.851174	41.855535	34.769880	757.037543	-31.436851	12.676125	36.375929	27.206106	45.000000	-45.000000	-3319.635150	-1910.667472	159.637937	18.516055	2160.948010	-196.775314	11.032581	13.690725	-13.113496	-45.000000	-35.760268	45.000000	-45.000000	-3862.689051	-1353.975615	15.430549	-180.000000	371.135567	198.215697	10.424805	-11.862393	
11.4300	28.202950	32.831286	41.714293	32.700858	757.294342	-31.346582	12.663331	36.361505	27.173838	45.000000	-45.000000	-3319.804381	-1910.620133	159.616398	18.612259	2160.947648	-196.641557	11.102098	13.704289	-13.036697	-45.000000	-35.773682	45.000000	-45.000000	-3862.515772	-1353.834861	15.475026	-180.000000	371.166522	198.516181	10.359942	-11.919078	
11.4400	28.216262	32.804478	41.567654	30.545133	757.588417	-31.261148	12.652476	36.341997	27.138806	45.000000	-45.000000	-3319.974410	-1910.567227	159.594372	18.715650	2160.942310	-196.469610	11.176284	13.718970	-12.954802	-45.000000	-35.790087	45.000000	-45.000000	-3862.340020	-1353.690874	15.519952	-180.000000	371.203452	198.800382	10.306057	-11.967869	
11.4500	28.224035	32.779746	41.437297	28.305522	757.919570	-31.180884	12.656573	36.301504	27.092045	45.000000	-45.000000	-3320.137800	-1910.499433	159.576202	18.822576	2160.943945	-196.269481	11.249500	13.729496	-12.861828	-45.000000	-35.794893	45.000000	-45.000000	-3862.153749	-1353.539603	15.565575	-180.000000	371.251748	199.064535	10.261345	-12.005322	
11.4600	28.219744	32.756495	41.330386	25.985114	758.288096	-31.106328	12.681836	36.234015	27.032891	45.000000	-45.000000	-3320.286970	-1910.416164	159.572876	18.938686	2160.944418	-196.050394	11.321684	13.736032	-12.755400	-45.000000	-35.791521	45.000000	-45.000000	-3861.956881	-1353.378601	15.608556	-180.000000	371.316280	199.308306	10.224152	-12.029723	
